<?xml version="1.0" encoding="UTF-8" standalone="no"?>
<svg
   version="1.1"
   id="Layer_1"
   x="0px"
   y="0px"
   width="993.82092"
   viewBox="0 0 993.82092 1117.3165"
   enable-background="new 0 0 1024 832"
   xml:space="preserve"
   sodipodi:docname="Beagle logo.svg"
   height="1117.3165"
   inkscape:version="1.3.2 (091e20e, 2023-11-25)"
   inkscape:export-filename="Beagle-logo-clean.png"
   inkscape:export-xdpi="96"
   inkscape:export-ydpi="96"
   xmlns:inkscape="http://www.inkscape.org/namespaces/inkscape"
   xmlns:sodipodi="http://sodipodi.sourceforge.net/DTD/sodipodi-0.dtd"
   xmlns="http://www.w3.org/2000/svg"
   xmlns:svg="http://www.w3.org/2000/svg"><defs
   id="defs2"><rect
     x="17.312851"
     y="821.39856"
     width="996.00275"
     height="272.71454"
     id="rect2" /><rect
     x="11.5419"
     y="821.39856"
     width="948.35944"
     height="188.5177"
     id="rect1" /></defs><sodipodi:namedview
   id="namedview2"
   pagecolor="#ffffff"
   bordercolor="#000000"
   borderopacity="0.25"
   inkscape:showpageshadow="2"
   inkscape:pageopacity="0.0"
   inkscape:pagecheckerboard="0"
   inkscape:deskcolor="#d1d1d1"
   showguides="false"
   inkscape:zoom="0.51984508"
   inkscape:cx="485.72163"
   inkscape:cy="527.08011"
   inkscape:window-width="1312"
   inkscape:window-height="833"
   inkscape:window-x="146"
   inkscape:window-y="507"
   inkscape:window-maximized="0"
   inkscape:current-layer="Layer_1"
   inkscape:export-bgcolor="#00000000" />
<path
   fill="#000000"
   opacity="1"
   stroke="none"
   d="m 628.50571,801.41444 c -12.49786,-0.005 -24.49573,-0.008 -36.49359,-0.0159 -5.79993,-0.004 -10.7713,-3.39508 -13.03442,-9.21771 -6.06898,-15.61395 -12.04847,-31.26275 -18.01636,-46.91571 -0.46375,-1.21649 -0.83618,-2.58362 -0.78583,-3.86243 2.20884,-56.13343 -15.52659,-132.97818 -16.23041,-142.46832 -0.8067,-10.87787 -3.22082,-21.64148 -5.0357,-32.43799 -1.53888,-9.15442 -3.27893,-18.27508 -4.8133,-27.43023 -0.67035,-3.9997 -2.70068,-4.86261 -6.64062,-4.39136 -24.56452,2.93829 -49.13098,2.10638 -73.76517,0.30127 -19.73587,-1.44623 -39.29941,-4.42963 -59.03116,-5.72247 -5.15106,-0.33747 -10.10406,-1.732 -15.32593,-1.87861 -20.72494,-0.58178 -40.03057,5.30323 -59.08416,12.36847 -18.25162,6.76795 -35.74411,15.19037 -52.16492,25.66907 -18.20044,11.61432 -35.16986,24.57929 -46.66719,43.49054 -8.37225,13.77112 -10.81809,28.16724 -7.11833,43.9859 1.64221,7.02136 3.88931,13.65998 6.73724,20.20783 5.65712,13.00653 16.21484,20.74286 28.44113,26.68328 15.14795,7.36011 20.66995,20.40809 21.18103,36.1952 0.20169,6.23016 1.03784,12.60241 -2.26693,18.58496 -2.32837,4.21484 -5.53354,6.68377 -10.2277,6.69897 -25.99948,0.0843 -51.99936,0.0367 -77.9991,0.0417 -4.43374,8.5e-4 -7.76124,-2.21015 -9.92448,-5.76331 -8.47609,-13.92193 -17.01395,-27.81903 -24.96616,-42.04004 -2.67736,-4.78802 -1.28601,-10.7832 -1.81402,-16.20605 -1.38124,-14.1861 -2.67252,-28.3169 -5.70229,-42.32385 -1.38736,-6.41395 -2.69264,-12.97162 -3.56047,-19.55085 -0.31468,-2.38556 -1.31602,-4.68048 -2.2372,-7.80847 -16.72476,16.54437 -32.267301,32.78943 -40.267001,54.72724 -1.77233,4.86035 -2.96062,9.8421 -3.87245,14.84661 -1.19893,6.58008 0.11662,8.30188 6.72413,9.56647 19.945811,3.81732 33.471811,23.25946 33.398401,41.77429 -0.0392,9.89759 -0.64543,19.58564 -3.9321,28.987 -2.70767,7.74537 -6.62863,10.84241 -14.73836,10.86695 -26.998927,0.0816 -53.998316,0.0652 -80.997351,0.005 -7.011822,-0.0157 -10.923964,-3.03852 -13.547485,-10.33106 -4.706574,-13.0827 -9.3714655,-26.18152 -13.88502551,-39.33154 -1.204432,-3.50903 -1.214001,-7.16199 0.60422401,-10.65161 9.1432355,-17.54773 13.0341195,-36.40125 13.7291255,-56.01532 0.392368,-11.07318 -1.640005,-21.95697 -4.372971,-32.51721 -5.7286315,-22.13538 -0.75988,-40.98926 13.727286,-58.51886 11.612297,-14.05103 22.370266,-28.94123 29.353485,-46.07202 8.32492,-20.42219 12.50933,-41.42701 10.67173,-63.68537 -1.544495,-18.70788 -5.063057,-37.13992 -6.762856,-55.79492 -1.898399,-20.83444 0.489304,-41.15677 12.415619,-58.87412 8.442391,-12.54177 18.369938,-24.11224 31.128909,-32.78244 1.33396,-0.90649 2.99462,-1.57217 3.72082,-3.71566 -2.38608,-4.74231 -6.721771,-8.30341 -10.158861,-12.46781 -19.892429,-24.10189 -35.119014,-50.84497 -45.924087,-80.08223 -5.22226,-14.13081 -8.556938,-28.75665 -11.109554,-43.6788 -2.648297,-15.48148 -2.392384,-30.95509 -1.202416,-46.27797 1.223908,-15.75989 6.571957,-30.79535 14.293709,-44.778234 9.247345,-16.7455 21.355171,-30.87755 37.766368,-41.02426 17.103891,-10.57499 35.282861,-14.23298 55.354921,-10.44938 15.89675,2.99654 28.71712,11.09068 40.68589,21.0261 7.06718,5.86657 5.23945,16.69373 -2.1386,22.06498 -19.99753,14.55832 -36.57959,32.180314 -44.19754,56.351774 -4.83307,15.33511 -4.51183,31.06677 -0.15894,46.62646 4.02436,14.3853 10.77092,27.42418 19.56597,39.43558 7.64874,10.44589 18.55589,16.44434 29.92372,21.82324 13.16405,6.22879 27.23337,9.52991 41.43027,11.9 57.40627,-1.26973 114.78788,-5.90678 171.88249,-12.05158 32.90678,-3.89741 65.37931,-7.91789 97.89592,-14.65949 16.08282,-3.58969 31.52174,-8.09704 45.30055,-16.89374 32.01337,-20.43821 52.06275,-50.21473 66.00128,-84.76485 6.57557,-16.29915 10.89057,-33.430544 18.64728,-49.304874 14.55853,-29.79424 33.90802,-55.1739 63.92658,-71.00376 13.2445,-6.9843104 27.28955,-11.32959042 42.27533,-11.86120042 5.08416,-0.18036 10.27581,0.79436 15.32147,1.75200002 15.47565,2.93723 30.91711,6.05973 46.34796,9.2266104 18.84149,3.86684 37.74554,7.48422 56.45795,11.90599 14.06762,3.3242 23.42669,13.08733 29.34228,25.78412 5.46344,11.72627 9.99603,23.8913 14.76618,35.93142 1.01904,2.5721 2.35022,4.19374 5.12274,4.79101 16.04681,3.4568 32.13141,6.76453 48.08831,10.601064 8.99579,2.16288 18.16181,3.664 26.95405,6.70162 10.72739,3.70616 15.22489,12.24269 16.06809,22.46368 1.1864,14.37958 -2.1559,28.05889 -9.70225,40.51354 -1.61767,2.66977 -2.29492,5.35864 -2.22937,8.49689 0.1878,8.99603 0.8454,18.07342 -0.0522,26.98071 -1.55224,15.40176 -5.21441,30.16492 -18.68548,40.23498 -8.21668,6.14219 -17.80225,8.47617 -27.62403,8.77607 -18.81603,0.57455 -37.65918,0.32428 -56.49078,0.29202 -4.74493,-0.008 -9.35327,-4.03729 -10.4508,-8.60922 -1.24482,-5.18488 0.91485,-9.98926 5.28985,-13.00128 5.27722,-3.63315 11.25739,-2.45032 16.9112,-2.61393 13.65533,-0.39518 27.32922,-0.0996 40.99432,-0.22155 18.2843,-0.16314 23.5647,-9.98879 25.46918,-24.0546 0.77539,-5.72714 0.069,-11.64658 0.17523,-17.476 0.0571,-3.13832 -1.56409,-3.90459 -4.35761,-4.00822 -16.32574,-0.6057 -31.09393,-12.20507 -35.53228,-26.8884 -3.22907,-10.68246 -1.77045,-21.16258 6.11212,-29.88361 4.33221,-4.793 11.76831,-5.79364 16.31061,-2.44499 5.06555,3.73445 6.28558,10.52039 3.07104,17.08228 -3.65979,7.47104 -2.31494,11.67445 4.96283,15.51135 8.02283,4.22964 13.53528,2.50883 17.56647,-5.64381 2.45495,-4.96477 3.9649,-10.18697 3.88604,-15.82317 -0.0969,-6.92993 -0.41729,-7.49602 -7.27056,-8.85855 -9.09699,-1.80863 -18.28174,-3.44534 -27.23292,-5.65549 -11.74615,-2.90027 -23.74127,-4.84273 -35.29376,-8.42319 -15.41577,-4.77778 -27.32904,2.88762 -39.41906,10.2665 -4.06165,2.47899 -7.47242,6.12631 -12.88898,5.82895 -5.36029,-0.29427 -9.01453,-2.6554 -11.04376,-7.79094 -1.8512,-4.68504 -0.71796,-9.70371 3.21258,-13.12708 7.71051,-6.71559 16.54444,-11.643814 25.79895,-15.867864 0.60315,-0.27529 1.2464,-0.46125 1.86566,-0.70256 4.26368,-1.66154 6.09107,-3.5048 3.58692,-8.76009 -4.47998,-9.40208 -7.27075,-19.55941 -12.89679,-28.51803 -3.18732,-5.07513 -7.75971,-7.97161 -13.18366,-9.08366 -25.83435,-5.2967 -51.75573,-10.16776 -77.60052,-15.41519 -7.94867,-1.61388 -15.87329,-3.34924 -23.82215,-4.97097 -12.71795,-2.59477 -23.92907,1.22152 -35.03375,6.46382 -22.25567,10.50649 -37.54785,27.99422 -49.82153,48.80244 -10.48609,17.77775 -16.3053,37.366224 -23.32953,56.519574 -12.0448,32.84317 -29.96857,61.88735 -56.33026,85.25241 -40.34953,36.34907 -92.3791,37.68036 -144.27934,44.0965 -107.00975,12.72449 -181.15228,18.23739 -207.47521,16.5239 -13.11621,-0.85381 -40.338,-7.93145 -52.34949,-13.42101 -20.70445,-9.46243 -36.34364,-24.00378 -46.82531,-44.34525 -5.73189,-11.12368 -10.77234,-22.51887 -13.81964,-34.56359 -2.63446,-10.41294 -3.32788,-21.13213 -2.94268,-32.07552 0.62103,-17.64351 5.92112,-33.61394 14.44742,-48.65572 7.35782,-12.980364 17.29968,-23.957414 28.4061,-33.880254 0.86423,-0.77215 1.68602,-1.59559 2.48035,-2.43958 0.20527,-0.21813 0.23152,-0.60476 0.34437,-0.92645 -10.84773,-7.77501 -23.05998,-9.97929 -35.89645,-7.76919 -6.48874,1.11719 -12.77906,3.84854 -18.33942,7.4993 -17.906219,11.75669 -29.482216,28.343124 -36.660606,48.377334 -4.560753,12.72864 -6.06234,25.72483 -5.753418,39.14095 0.455734,19.79201 4.938423,38.69748 11.501984,57.24564 6.627792,18.72973 15.624669,36.34219 26.418109,52.88397 8.156741,12.50085 17.149831,24.56985 28.066321,34.97748 2.76556,2.63665 5.47536,5.33697 8.114,8.10046 6.35045,6.65088 4.9772,15.44656 -3.18022,20.68072 -12.50977,8.02689 -24.72081,16.42985 -33.684061,28.60373 -8.11085,11.01615 -13.341518,23.06888 -14.420284,36.98871 -1.182876,15.26325 1.971283,30.04346 3.506824,45.03369 1.92253,18.76819 4.42299,37.33243 2.1988,56.56549 -3.878193,33.53553 -18.581089,61.66108 -38.332409,87.91846 -1.499771,1.99372 -2.786102,4.19501 -4.518337,5.95941 -12.758671,12.99561 -13.942364,28.51258 -9.65313,45.03907 4.203774,16.19708 4.359585,32.71661 2.650177,49.02124 -1.477772,14.09527 -4.666996,28.15594 -10.88158,41.17865 -1.71571,3.59533 -1.588951,6.9422 -0.204117,10.52398 2.274628,5.88336 4.820476,11.71179 6.450992,17.77863 1.322564,4.9209 4.411831,6.27063 8.741566,6.32812 6.32251,0.084 12.646797,0.039 18.970329,0.0406 11.833214,0.003 23.667206,-0.0786 35.499239,0.0392 4.415971,0.044 6.384521,-1.72986 6.354751,-6.2276 -0.038,-5.75031 0.93919,-11.41535 -1.76659,-17.05494 -3.272651,-6.82122 -8.786761,-10.22186 -15.634811,-11.87377 -3.356229,-0.8097 -6.906293,-0.8747 -10.379461,-1.1286 -7.142494,-0.52204 -12.111374,-4.87855 -12.402923,-11.91547 -0.649254,-15.67078 1.52267,-41.90798 21.916205,-70.55973 18.55259,-26.06532 73.70253,-101.34335 111.00994,-120.68692 26.67621,-22.66266 56.87836,-25.05733 89.1505,-27.91485 22.65891,-2.00632 72.50842,2.86729 83.55551,4.271 19.44,2.47015 39.04996,3.63018 58.46826,6.23712 27.28949,3.66357 54.65363,4.53442 82.11582,4.07458 5.3305,-0.0893 10.64209,-0.19208 15.92261,-1.15668 2.43341,-0.44445 3.35882,-1.16882 2.99456,-3.90625 -1.22339,-9.19329 -2.88641,-18.29272 -4.51342,-27.4187 -1.97345,-11.06918 -3.66529,-22.21331 -5.54413,-33.31616 -1.68732,-9.9715 -3.17847,-19.97714 -4.65766,-29.98227 -0.36297,-2.45544 -0.53668,-4.9739 -0.45819,-7.45264 0.18091,-5.71646 4.22595,-9.85244 10.04871,-10.54296 5.90411,-0.7002 11.03155,2.23532 12.4707,7.61834 2.39844,8.97126 3.8039,18.14255 5.17304,27.32865 1.63623,10.97818 3.72387,21.88864 5.57659,32.83508 2.13117,12.59164 4.22291,25.19 6.32502,37.78662 1.77423,10.63159 3.46734,21.27735 5.32879,31.89362 1.69043,9.64093 3.65259,19.21698 4.90839,28.95172 1.52325,11.80725 4.12097,23.47168 5.99585,35.23895 1.92981,12.11304 4.1521,24.17536 6.02472,36.30206 2.12439,13.75794 4.58752,27.44281 6.01385,41.31696 1.75293,17.04962 3.64722,34.08997 2.7323,51.2381 -0.39142,7.33728 2.24451,13.56482 4.79425,20.06268 3.27527,8.34705 6.11017,16.85993 9.81482,25.05005 1.00574,2.22333 2.29499,3.01361 4.52289,3.00922 19.49945,-0.0381 38.99903,-0.0928 58.49823,-0.0286 3.26941,0.0108 3.88928,-1.59045 3.78107,-4.37262 -0.54761,-14.07727 -6.56262,-21.18579 -20.2807,-23.75043 -6.53241,-1.22125 -13.02277,-2.41058 -19.76905,-2.30163 -7.92315,0.12793 -13.45709,-7.13501 -12.36706,-15.08954 2.23425,-16.30426 2.8985,-32.75409 4.40655,-49.12543 1.33979,-14.5451 3.19959,-29.04168 4.60553,-43.58142 1.82196,-18.84161 3.81928,-37.67816 7.47736,-56.24365 3.63458,-18.44635 9.94989,-36.04321 18.39801,-52.92572 15.32977,-30.63489 37.80615,-56.12769 58.71692,-82.76465 13.99896,-17.83255 27.59405,-35.96893 35.00415,-57.73938 3.36383,-9.88257 6.12842,-19.98068 6.01746,-30.64713 -0.0771,-7.41033 4.72186,-12.40194 11.37756,-12.50726 7.59778,-0.12018 12.62665,4.50788 12.99854,12.14841 0.39105,8.03451 -1.38178,15.87265 -2.82874,23.66867 -3.63165,19.56726 -12.50903,37.00909 -23.20465,53.52969 -5.03687,7.78 -10.54553,15.31009 -16.43579,22.46326 -4.18872,5.08679 -6.96985,10.40396 -7.5163,16.96603 -1.83118,21.99027 -5.76971,43.74295 -7.72308,65.70237 -1.25073,14.06115 -3.10633,28.06298 -4.91602,42.01495 -2.09033,16.11438 -3.54602,32.31689 -6.0517,48.39203 -1.9154,12.28869 -2.79711,24.74011 -4.06677,37.12658 -0.34747,3.38965 2.33435,2.80555 4.40485,3.22321 17.03888,3.43713 33.68738,7.69495 46.3504,20.93774 8.33087,8.71235 12.89197,19.10273 15.1189,30.81727 1.90478,10.01965 2.94507,20.005 1.9292,30.21161 -0.77307,7.76727 -5.44532,12.47662 -13.19434,12.48425 -19.49988,0.0192 -38.99994,0.0458 -58.49939,-0.051 -4.00671,-0.0199 -6.76556,0.009 -5.54974,5.61475 1.07837,4.97266 1.00335,10.24023 1.05377,15.38141 0.0944,9.63031 -4.92908,14.72235 -14.6991,14.82086 -15.65893,0.15784 -31.32,0.10126 -47.48016,0.13586 m 26.90185,-74.85022 c 7.98139,2.12714 15.3653,5.58301 21.22278,11.41767 2.26575,2.25689 4.33081,3.16534 7.33631,3.15265 17.81884,-0.0752 35.63812,-0.0267 53.45709,-0.0807 1.72772,-0.005 3.69434,0.59491 5.12256,-1.14624 -0.11389,-2.32862 -0.0862,-4.65766 -0.36286,-6.94995 -1.84979,-15.32599 -8.69683,-26.83686 -23.85162,-32.68085 -10.86035,-4.18793 -22.18079,-5.53491 -33.54443,-6.73608 -7.45093,-0.78766 -11.68628,-4.64393 -11.60504,-12.07209 0.15997,-14.63702 2.80438,-29.06494 4.46276,-43.54095 2.45136,-21.39862 5.42261,-42.74085 7.7309,-64.17316 2.39514,-22.23981 5.75342,-44.37567 8.64423,-66.56299 0.15435,-1.18451 0.58123,-2.54706 -0.54688,-3.79718 -15.802,20.80976 -28.33331,43.11774 -36.22821,67.90351 -4.34607,13.6444 -6.74054,27.74011 -8.2085,41.88494 -1.59283,15.34742 -3.06585,30.73902 -4.71472,46.06745 -2.16656,20.14056 -4.17987,40.26916 -5.45208,60.47986 -0.14417,2.29058 0.39508,4.11407 3.11029,4.04095 4.43011,-0.11926 8.47284,1.51514 13.42742,2.79315 M 162.1715,652.93483 c 3.03811,14.96924 4.98191,30.07782 5.58343,45.34241 0.14852,3.76861 1.15573,7.10675 3.13532,10.33728 4.86045,7.9317 9.69829,15.89007 14.14877,24.05377 1.6891,3.09845 3.627,4.22943 7.05048,4.20294 16.49649,-0.12762 32.99456,-0.0456 49.49202,-0.0712 1.26913,-0.002 2.71002,0.40033 3.66885,-0.91058 -0.20892,-7.84137 -3.54993,-12.71539 -10.86095,-16.32935 -15.33197,-7.57898 -27.44404,-18.31042 -34.87187,-34.16156 -5.19655,-11.08954 -8.70225,-22.53491 -10.57079,-34.58313 -1.76087,-11.35418 -1.2088,-22.61981 1.91243,-33.58947 4.79531,-16.8534 14.31191,-31.04181 26.52813,-43.38379 17.4985,-17.67865 38.08012,-31.04761 60.2476,-42.08619 6.68335,-3.328 29.88505,-9.4112 36.60514,-12.66548 -10.85812,-2.23925 -37.80338,2.27797 -48.01145,3.75722 -27.45818,3.97894 -51.79112,15.01819 -71.70119,35.01263 -14.60029,14.66236 -26.67625,31.46589 -40.533,46.74543 -0.82378,0.90832 -1.49542,2.13641 -0.97727,3.19616 1.88242,3.85004 1.49886,8.13282 2.5877,12.13459 2.87513,10.56695 5.08535,21.27972 6.56665,32.99835 z"
   id="path1"
   sodipodi:nodetypes="cssscssscsssssssssssssssssscssssssssscssssssssccsssssssssssssssssssssssssssssssssssssssssssssssssssssssssssssssssssssssssssscssssssssssssssssssssssssssssssssssssssssssssssssssssscsssssssssssssssssssssssssssssssccsssccsssssscsssssccssssscsssssscscssscc" />
<path
   fill="#000000"
   opacity="1"
   stroke="none"
   d="m 784.79453,151.72357 c -8.22345,-16.24412 -11.65125,-33.11175 -10.64923,-50.92202 0.24426,-4.342834 0.58758,-8.609894 1.95856,-12.785284 2.05279,-6.25226 6.56665,-8.95425 13.59368,-7.89028 5.84223,0.88458 9.13245,4.83398 9.14215,11.1021 0.004,2.83062 -10e-4,5.67516 -0.25817,8.49007 -1.69068,18.533904 4.21704,35.029124 13.48962,50.623184 8.23547,13.85008 17.65454,26.99975 24.69867,41.55401 8.55017,17.66611 14.96448,35.97739 18.21112,55.45739 2.78503,16.71005 2.9444,33.05343 -3.19885,49.04217 -5.35273,13.93128 -15.67279,22.82092 -29.42627,27.92655 -7.69389,2.85619 -87.67944,-0.32604 -113.28357,-10.10462 -7.06494,-3.81399 -14.93842,-7.26687 -19.69611,-14.60104 -11.83361,-14.80877 -12.57425,-23.63514 -14.38165,-35.69013 -1.37928,-9.19952 -1.74042,-22.50091 1.26605,-39.28512 3.19951,-17.8619 20.11563,-46.88151 15.4524,-63.97048 -2.55908,-12.25329 -3.50442,-18.05704 7.08925,-20.31681 6.00524,-1.281 12.41315,6.56649 13.51751,12.51409 4.03044,21.70621 -3.69241,38.61191 -8.64311,56.03013 -10.94968,38.5246 -24.03847,69.08969 22.52901,85.60479 14.59025,5.17442 59.13542,9.11372 78.5611,6.85556 11.97222,-1.39172 21.22998,-4.58581 24.92981,-16.24841 4.0393,-12.73264 2.93609,-25.39209 0.39068,-38.31747 -3.93738,-19.99367 -11.53754,-38.45102 -21.78735,-55.85622 -7.6684,-13.0217 -16.22571,-25.51677 -23.50531,-39.21216 z"
   id="path2"
   sodipodi:nodetypes="csssscsssssssssssssssssscc" />
<text
   xml:space="preserve"
   id="text1"
   style="font-size:24px;line-height:0;white-space:pre;shape-inside:url(#rect1);fill:#000000;stroke:#000000;stroke-width:3.77953;stroke-dashoffset:4.15748"
   transform="translate(-14.494291,-13.842824)" /><text
   xml:space="preserve"
   id="text2"
   style="font-size:240px;line-height:0;white-space:pre;shape-inside:url(#rect2);shape-padding:3.8473;fill:#000000;stroke:#000000;stroke-width:3.77953;stroke-dashoffset:4.15748"
   transform="matrix(1.0488507,0,0,0.96047944,-35.3611,120.74495)" /><text
   xml:space="preserve"
   style="font-style:normal;font-variant:normal;font-weight:normal;font-stretch:normal;font-size:354.872px;line-height:0;font-family:'Gujarati MT';-inkscape-font-specification:'Gujarati MT';fill:#000000;stroke:#000000;stroke-width:5.58855;stroke-dashoffset:4.15748"
   x="-7.6568594"
   y="1038.2803"
   id="text3"><tspan
     sodipodi:role="line"
     id="tspan3"
     x="-7.6568594"
     y="1038.2803"
     style="font-style:normal;font-variant:normal;font-weight:normal;font-stretch:normal;font-family:Kefa;-inkscape-font-specification:Kefa;stroke-width:5.58855">Beagle</tspan></text></svg>
